<svg width="206" height="208" viewBox="0 0 206 208" fill="none" xmlns="http://www.w3.org/2000/svg">
<path d="M113.83 71.0105L113.829 71.0103C106.437 68.7199 98.4747 68.7198 91.0749 71.0105L91.0748 71.0105C81.1681 74.0763 75.9547 80.1575 73.1842 85.452C71.7902 88.116 71.0115 90.5911 70.5827 92.3935C70.3686 93.2931 70.243 94.0201 70.1716 94.5127C70.1359 94.7588 70.1138 94.9459 70.101 95.0661C70.0973 95.101 70.0944 95.1303 70.0922 95.1537C70.0905 95.1706 70.0893 95.1845 70.0883 95.1952L70.0864 95.2178L70.0862 95.2196L70.0862 95.2202L70.0861 95.221L70.086 95.2224L69.9537 97.0753H68.0915H37.2752C31.3557 97.0753 25.4545 95.7361 20.1842 92.9103L20.184 92.9102C14.4415 89.8304 10.7129 85.8259 8.41806 82.5811C7.271 80.9592 6.47944 79.5236 5.96993 78.4804C5.71499 77.9584 5.53009 77.5335 5.40614 77.231C5.34415 77.0797 5.29736 76.959 5.26463 76.8719C5.24826 76.8283 5.2354 76.7932 5.22592 76.7668L5.22485 76.7638C2.80027 70.5934 2.26798 65.408 2.95605 61.0786C3.6464 56.735 5.54371 53.39 7.75381 50.8818C9.95098 48.3883 12.4502 46.7275 14.3806 45.6925C15.35 45.1727 16.1885 44.804 16.7932 44.5624C17.096 44.4415 17.3413 44.352 17.5165 44.2911C17.6041 44.2606 17.6743 44.2372 17.7255 44.2205C17.7511 44.2122 17.7719 44.2056 17.7878 44.2006L17.808 44.1943L17.8152 44.192L17.8182 44.1911C17.8194 44.1907 17.8206 44.1904 18.4032 46.1037L17.8206 44.1904L19.9511 43.5416L20.3679 45.7294C20.4172 45.9887 20.4724 46.2398 20.5332 46.4828L20.5346 46.4887C22.6643 55.1189 32.1 60.0326 40.3506 56.7842L40.3509 56.7841C42.9187 55.7737 44.8294 54.1754 46.1076 52.807C46.331 52.5678 46.5338 52.3371 46.7161 52.1195L43.8432 50.6002C42.3319 52.2678 40.736 53.375 39.1165 54.0369C37.101 54.8607 35.1722 54.9444 33.5254 54.7006L33.5246 54.7005C29.7559 54.1409 26.7052 51.5757 25.1356 48.2947L25.1351 48.2936C23.2047 44.2519 23.5224 40.243 24.5788 36.9559C27.001 29.407 33.821 24.0791 41.6801 23.3845L41.6808 23.3845C45.912 23.012 49.6537 23.8552 52.3147 24.7726C53.6502 25.2331 54.7299 25.7178 55.4836 26.0922C55.7664 26.2327 56.0042 26.358 56.1932 26.4612H57.6846C59.5 24.6791 61.4123 23.6991 62.9391 23.1636C63.7895 22.8654 64.5218 22.7043 65.0562 22.6172C65.3239 22.5735 65.5434 22.5481 65.705 22.5334C65.7859 22.5261 65.8524 22.5213 65.9035 22.5183C65.929 22.5168 65.9507 22.5157 65.9684 22.515L65.9919 22.514L65.996 22.5139C73.2955 22.2511 77.3357 25.1655 79.4295 28.4645C80.4332 30.046 80.935 31.6284 81.1886 32.8032C81.3161 33.3944 81.3834 33.894 81.419 34.2556C81.4368 34.4368 81.4468 34.5844 81.4524 34.6928C81.4525 34.6956 81.4527 34.6983 81.4528 34.701C82.2531 39.2769 80.274 42.7637 78.2488 44.9923C77.3525 45.9785 76.4244 46.7481 75.6674 47.3013L77.1393 49.9272C81.3738 47.3881 83.3011 43.9972 84.1915 41.1394C84.6978 39.5145 84.8715 38.0462 84.9182 36.9897C84.9414 36.4632 84.9329 36.0447 84.9196 35.7672C84.913 35.6287 84.9053 35.5259 84.8998 35.4632C84.8971 35.4318 84.895 35.4105 84.8938 35.3997L84.8937 35.3979L84.8935 35.3962L84.8932 35.3937L84.8929 35.3916L84.8825 35.3065L84.8799 35.2125C84.6654 27.481 80.6183 23.5825 76.5792 21.5099C74.5181 20.4522 72.4497 19.8739 70.8835 19.5621C70.1047 19.407 69.4612 19.3201 69.0201 19.2723C68.7999 19.2485 68.631 19.2345 68.522 19.2266C68.4675 19.2227 68.428 19.2203 68.4046 19.219L68.384 19.2179L68.3823 19.2179L68.3818 19.2179L68.3811 19.2178L68.3797 19.2178L64.2802 19.054L66.9398 15.9244L68.4638 17.2195C66.9398 15.9244 66.9403 15.9238 66.9409 15.9232L66.942 15.9218L66.9447 15.9187L66.9517 15.9106L66.9719 15.8872C66.9881 15.8685 67.01 15.8437 67.0375 15.8129C67.0924 15.7513 67.1699 15.666 67.27 15.5593C67.4703 15.346 67.7616 15.0469 68.1452 14.6804C68.9124 13.9475 70.0503 12.9439 71.5712 11.8168C74.6136 9.56225 79.1913 6.81149 85.3979 4.7475L85.3995 4.74694C96.4457 1.08435 108.438 1.08435 119.484 4.74694L119.485 4.74728C125.699 6.81111 130.281 9.56169 133.327 11.8161C134.85 12.9432 135.989 13.9467 136.757 14.6795C137.141 15.046 137.433 15.3451 137.634 15.5584C137.734 15.6651 137.811 15.7504 137.866 15.8119C137.879 15.826 137.89 15.8389 137.901 15.8504C137.913 15.8642 137.923 15.8762 137.932 15.8863L137.952 15.9096L137.959 15.9177L137.962 15.9209L137.963 15.9222C137.964 15.9228 137.964 15.9234 136.441 17.2195L137.964 15.9234L140.628 19.0538L136.525 19.2178L136.524 19.2178L136.523 19.2179L136.522 19.2179L136.521 19.2179L136.5 19.219C136.477 19.2203 136.437 19.2227 136.383 19.2266C136.274 19.2345 136.105 19.2485 135.885 19.2723C135.444 19.3201 134.8 19.407 134.021 19.5621C132.455 19.8739 130.387 20.4522 128.326 21.5099C124.286 23.5825 120.239 27.481 120.025 35.2125L120.022 35.3065L120.012 35.3916L120.012 35.3937L120.011 35.3962L120.011 35.3979L120.011 35.3997C120.01 35.4105 120.008 35.4318 120.005 35.4632C120 35.5259 119.992 35.6287 119.985 35.7672C119.972 36.0447 119.963 36.4632 119.987 36.9897C120.033 38.0462 120.207 39.5145 120.713 41.1394C121.604 43.9972 123.531 47.3881 127.765 49.9272L129.237 47.3013C128.48 46.7481 127.552 45.9785 126.656 44.9923C124.631 42.7637 122.652 39.2769 123.452 34.701C123.452 34.6983 123.452 34.6956 123.452 34.6928C123.458 34.5845 123.468 34.4369 123.486 34.2558C123.521 33.8944 123.589 33.3949 123.716 32.804C123.97 31.6296 124.472 30.0479 125.475 28.4669C127.569 25.1691 131.609 22.255 138.908 22.5138L138.913 22.514L138.937 22.515C138.954 22.5157 138.976 22.5168 139.001 22.5183C139.052 22.5214 139.119 22.5261 139.2 22.5335C139.361 22.5482 139.581 22.5735 139.848 22.6172C140.382 22.7044 141.114 22.8655 141.963 23.1638C143.49 23.6993 145.402 24.6794 147.219 26.4612H148.712C148.901 26.358 149.138 26.2327 149.421 26.0922C150.175 25.7178 151.255 25.2331 152.59 24.7726C155.251 23.8553 158.992 23.0122 163.223 23.3844C171.084 24.0713 177.912 29.4075 180.327 36.9577L180.327 36.9591C181.374 40.2402 181.701 44.2493 179.77 48.2936L179.769 48.2947C178.2 51.5757 175.149 54.1409 171.38 54.7005L171.379 54.7006C169.731 54.9447 167.802 54.8584 165.787 54.0339C164.169 53.3715 162.574 52.2648 161.063 50.5997L158.19 52.1187C158.373 52.3364 158.576 52.5673 158.799 52.8065C160.079 54.1755 161.99 55.7738 164.554 56.7842L113.83 71.0105ZM113.83 71.0105C123.737 74.0763 128.95 80.1575 131.721 85.452C133.115 88.116 133.893 90.5911 134.322 92.3935C134.536 93.2931 134.662 94.0201 134.733 94.5127C134.769 94.7588 134.791 94.9459 134.804 95.0661C134.81 95.1263 134.814 95.1696 134.816 95.1952L134.818 95.2178M113.83 71.0105L134.818 95.2178M134.818 95.2178L134.819 95.2196L134.819 95.2202L134.819 95.221L134.819 95.2224L134.951 97.0753H136.813H167.63C173.549 97.0753 179.45 95.7361 184.721 92.9103L184.721 92.9102C190.463 89.8304 194.192 85.8259 196.487 82.5811C197.634 80.9592 198.425 79.5236 198.935 78.4804C199.19 77.9584 199.375 77.5335 199.499 77.231C199.523 77.1704 199.546 77.1147 199.566 77.064C199.596 76.9883 199.621 76.9241 199.64 76.8719C199.657 76.8283 199.669 76.7932 199.679 76.7668L199.68 76.7641C202.106 70.5937 202.639 65.4083 201.952 61.0788C201.262 56.735 199.364 53.3898 197.153 50.8816C194.956 48.3881 192.456 46.7274 190.525 45.6923C189.555 45.1726 188.717 44.8039 188.112 44.5624C187.809 44.4415 187.563 44.352 187.388 44.291C187.301 44.2605 187.23 44.2371 187.179 44.2205C187.154 44.2122 187.133 44.2055 187.117 44.2005L187.097 44.1942L187.089 44.192L187.086 44.1911C187.085 44.1907 187.084 44.1903 186.502 46.1037L187.084 44.1903L184.954 43.5418L184.537 45.7295C184.503 45.9093 184.465 46.0733 184.419 46.2715C184.403 46.3447 184.385 46.4225 184.365 46.5075C182.227 55.1259 172.799 60.03 164.555 56.7844L134.818 95.2178Z" fill="#F8334E" stroke="white" stroke-width="4"/>
<path d="M115.552 125.333H114.344H102.456H90.5607H89.3535L88.7945 124.272L88.7941 124.271L88.7938 124.27L88.7929 124.269L88.785 124.254C88.7748 124.236 88.7566 124.204 88.7303 124.158C88.6775 124.067 88.5924 123.926 88.4748 123.745C88.2391 123.381 87.8758 122.862 87.3833 122.274C86.3918 121.091 84.9174 119.674 82.9538 118.65L82.944 118.645L82.9441 118.645C82.3076 118.308 81.5769 117.898 80.8931 117.365L80.8911 117.363C78.4272 115.439 72.6937 109.981 72.1928 100.557L115.552 125.333ZM115.552 125.333L116.111 124.271M115.552 125.333L116.111 124.271M116.111 124.271L116.111 124.27M116.111 124.271L116.111 124.27M116.111 124.27L116.111 124.269M116.111 124.27L116.111 124.269M116.111 124.269L116.112 124.268M116.111 124.269L116.112 124.268M116.112 124.268L116.12 124.253M116.112 124.268L116.12 124.253M125.735 82.2366L125.736 82.238C127.815 84.4269 129.616 87.5382 130.862 90.757C132.106 93.9703 132.876 97.4962 132.712 100.557C132.211 109.98 126.479 115.437 124.014 117.363L125.735 82.2366ZM125.735 82.2366C122.792 79.1431 118.572 75.9751 112.546 74.0385L112.545 74.0384M125.735 82.2366L112.545 74.0384M112.545 74.0384C106 71.9363 98.9116 71.9365 92.3597 74.0382L92.3587 74.0385M112.545 74.0384L92.3587 74.0385M92.3587 74.0385C86.3322 75.9751 82.1128 79.1431 79.1698 82.2366L79.1685 82.238M92.3587 74.0385L79.1685 82.238M79.1685 82.238C77.0897 84.4272 75.2885 87.5404 74.0426 90.7599M79.1685 82.238L74.0426 90.7599M116.12 124.253C116.13 124.235 116.149 124.202 116.175 124.157M116.12 124.253L116.175 124.157M116.175 124.157C116.228 124.066 116.313 123.924 116.43 123.743M116.175 124.157L116.43 123.743M116.43 123.743C116.666 123.379 117.029 122.859 117.522 122.271M116.43 123.743L117.522 122.271M117.522 122.271C118.513 121.087 119.986 119.672 121.947 118.652L117.522 122.271ZM74.0426 90.7599C72.7991 93.9732 72.029 97.4988 72.1928 100.556L74.0426 90.7599Z" fill="#F8334E" stroke="white" stroke-width="4"/>
<path d="M88.369 139.33H116.536C119.489 139.33 121.888 136.931 121.888 133.978C121.888 131.016 119.486 128.627 116.536 128.627H88.369C85.4068 128.627 83.0176 131.029 83.0176 133.978C83.0176 136.941 85.4193 139.33 88.369 139.33Z" fill="#F8334E" stroke="white" stroke-width="4"/>
<path d="M88.369 153.319H116.536C119.486 153.319 121.888 150.93 121.888 147.968C121.888 145.005 119.486 142.616 116.536 142.616H88.369C85.4068 142.616 83.0176 145.018 83.0176 147.968C83.0176 150.93 85.4193 153.319 88.369 153.319Z" fill="#F8334E" stroke="white" stroke-width="4"/>
<path d="M91.875 156.542H89.875V158.542V162.343C89.875 165.053 92.0734 167.238 94.7697 167.238H110.15C112.854 167.238 115.033 165.047 115.044 162.352H115.045V162.343V158.542V156.542H113.045H91.875Z" fill="#F8334E" stroke="white" stroke-width="4"/>
<path d="M65.3965 204.001V206.001H67.3965H89.5426C95.8053 206.001 100.873 200.924 100.873 194.67V181.697V179.697V179.69H98.8732V177.697H91.791H89.791V179.697V193.152C89.791 194.324 88.8385 195.277 87.6667 195.277H67.3965H65.3965V197.277V204.001Z" fill="#F8334E" stroke="white" stroke-width="4"/>
<path d="M137.524 206.001H139.524V204.001V197.277V195.277H137.524H117.254C116.082 195.277 115.129 194.324 115.129 193.152V179.697V177.697H113.129H106.04V179.69H104.04V179.697V181.697V194.67C104.04 200.924 109.108 206.001 115.371 206.001H137.524Z" fill="#F8334E" stroke="white" stroke-width="4"/>
<path d="M30.8656 169.238L34.2798 172.652V167.824V151.319V149.319H32.2798H25.043H23.043V151.319V167.88V172.708L26.4572 169.294L28.2773 167.474C28.5124 167.245 28.8813 167.253 29.1021 167.474L30.8656 169.238Z" fill="#F8334E" stroke="white" stroke-width="4"/>
<path d="M55.1473 155.447C55.1563 152.061 52.4089 149.319 49.03 149.319H39.1022H37.1022V151.319V176.613C37.1022 177.118 36.6908 177.529 36.1864 177.529H34.9779C34.8061 177.529 34.6402 177.459 34.5232 177.342L30.0335 172.852L28.6193 171.438L27.2051 172.852L22.5538 177.503C22.4326 177.625 22.2749 177.691 22.0991 177.691H20.9679C20.4635 177.691 20.0521 177.279 20.0521 176.775V151.319V149.319H18.0521H8.1243C4.74329 149.319 2 152.063 2 155.444V196.342C2 199.723 4.74329 202.467 8.1243 202.467H49.023C52.404 202.467 55.1473 199.723 55.1473 196.342V155.447ZM55.1473 155.447C55.1473 155.448 55.1473 155.449 55.1473 155.45L53.1473 155.444M55.1473 155.447V155.444H53.1473M53.1473 155.444V196.342C53.1473 198.619 51.2994 200.467 49.023 200.467H8.1243C5.84785 200.467 4 198.619 4 196.342V155.444C4 153.167 5.84785 151.319 8.1243 151.319H16.0521H18.0521V153.319V176.775C18.0521 178.384 19.359 179.691 20.9679 179.691H22.0991C22.8017 179.691 23.4692 179.417 23.9681 178.918L27.2051 175.681L28.6193 174.266L30.0335 175.681L33.109 178.756C33.6008 179.248 34.2753 179.529 34.9779 179.529H36.1864C37.7953 179.529 39.1022 178.222 39.1022 176.613V153.319V151.319H41.1022H49.03C51.3064 151.319 53.1543 153.167 53.1473 155.444Z" fill="#F8334E" stroke="white" stroke-width="4"/>
<path d="M170.334 183.51C178.474 183.51 185.072 176.911 185.072 168.771C185.072 160.632 178.474 154.033 170.334 154.033C162.194 154.033 155.596 160.632 155.596 168.771C155.596 176.911 162.194 183.51 170.334 183.51Z" fill="#F8334E" stroke="white" stroke-width="4"/>
<path d="M152.521 168.752C152.533 159.074 160.649 150.95 170.32 150.95L170.323 150.95C180.177 150.937 188.16 158.921 188.148 168.775V168.777C188.148 178.451 180.022 186.577 170.348 186.577H170.346C160.492 186.589 152.508 178.606 152.521 168.752ZM152.521 168.752L150.521 168.749L152.521 168.752ZM200.278 162.947L200.262 162.944L200.245 162.942L196.682 162.409C196.016 159.617 194.911 157 193.476 154.633L195.616 151.739C195.617 151.738 195.618 151.737 195.619 151.735C196.711 150.265 196.53 148.242 195.254 146.977C195.252 146.975 195.251 146.974 195.249 146.972L194.745 146.468L192.672 144.395L192.159 143.882L190.745 145.296L192.159 143.882C190.875 142.598 188.86 142.456 187.415 143.513L187.407 143.519L184.525 145.647C182.148 144.178 179.528 143.079 176.731 142.415L176.199 138.894C176.198 138.892 176.198 138.89 176.198 138.889C175.929 137.071 174.366 135.778 172.583 135.778H171.845H168.908H168.17C166.392 135.778 164.815 137.061 164.554 138.895L164.022 142.417C161.23 143.093 158.611 144.191 156.23 145.648L153.352 143.523C153.351 143.523 153.35 143.522 153.349 143.521C151.878 142.428 149.855 142.61 148.59 143.886L148.089 144.387L145.983 146.444L145.974 146.452L145.966 146.461L145.453 146.973L145.453 146.973C144.169 148.258 144.028 150.273 145.084 151.718L145.084 151.718L145.091 151.727L147.233 154.624C145.776 157.002 144.691 159.62 144.028 162.402L140.472 162.934C140.471 162.934 140.47 162.934 140.468 162.935C138.651 163.203 137.356 164.766 137.356 166.55V167.288V170.225V170.962C137.356 172.74 138.639 174.317 140.472 174.578L144.059 175.124C144.733 177.89 145.828 180.49 147.28 182.854L145.116 185.794C145.114 185.796 145.113 185.798 145.112 185.799C144.021 187.27 144.202 189.292 145.478 190.557C145.48 190.558 145.481 190.56 145.483 190.562L145.987 191.066L147.384 189.669L145.987 191.066L148.06 193.139L148.573 193.651L149.987 192.237L148.573 193.652C149.857 194.936 151.872 195.077 153.317 194.02L153.324 194.016L156.288 191.831C158.647 193.268 161.234 194.357 164.001 195.026L164.547 198.654C164.548 198.655 164.548 198.657 164.548 198.658C164.816 200.476 166.38 201.769 168.163 201.769H168.901H171.838H172.576C174.354 201.769 175.931 200.486 176.192 198.652L176.738 195.027C179.505 194.363 182.093 193.274 184.452 191.831L187.408 194.01C187.409 194.011 187.411 194.013 187.413 194.014C188.883 195.105 190.905 194.923 192.17 193.648C192.172 193.646 192.173 193.645 192.175 193.643L192.679 193.139L194.752 191.066L194.752 191.066L195.265 190.553C195.265 190.553 195.265 190.553 195.265 190.553C196.549 189.269 196.69 187.254 195.634 185.808L195.627 185.8L195.621 185.791L193.433 182.865C194.883 180.502 195.978 177.903 196.652 175.138L200.239 174.592C200.241 174.592 200.243 174.592 200.246 174.591C202.062 174.322 203.354 172.759 203.354 170.976V170.239V167.302V166.564C203.354 164.748 202.02 163.238 200.278 162.947Z" fill="#F8334E" stroke="white" stroke-width="4"/>
</svg>
