<svg width="36" height="48" viewBox="0 0 36 48" fill="none" xmlns="http://www.w3.org/2000/svg">
<path d="M12 48C8.68 48 5.8504 46.8304 3.5112 44.4912C1.1704 42.1504 0 39.32 0 36V12C0 8.68 1.1704 5.8504 3.5112 3.5112C5.8504 1.1704 8.68 0 12 0C15.32 0 18.1504 1.1704 20.4912 3.5112C22.8304 5.8504 24 8.68 24 12V24H16.8C15.48 24 14.3504 24.4696 13.4112 25.4088C12.4704 26.3496 12 27.48 12 28.8C10.68 28.8 9.5504 29.2696 8.6112 30.2088C7.6704 31.1496 7.2 32.28 7.2 33.6C7.2 34.88 7.6704 35.98 8.6112 36.9C9.5504 37.82 10.68 38.32 12 38.4V48ZM16.8 48V46.62C16.8 44.54 17.8 43.04 19.8 42.12C21.8 41.2 24 40.74 26.4 40.74C28.8 40.74 31 41.2 33 42.12C35 43.04 36 44.54 36 46.62V48H16.8ZM26.4 38.4C25.08 38.4 23.9496 37.9304 23.0088 36.9912C22.0696 36.0504 21.6 34.92 21.6 33.6C21.6 32.28 22.0696 31.1496 23.0088 30.2088C23.9496 29.2696 25.08 28.8 26.4 28.8C27.72 28.8 28.8504 29.2696 29.7912 30.2088C30.7304 31.1496 31.2 32.28 31.2 33.6C31.2 34.92 30.7304 36.0504 29.7912 36.9912C28.8504 37.9304 27.72 38.4 26.4 38.4ZM12 36C11.32 36 10.7504 35.7696 10.2912 35.3088C9.8304 34.8496 9.6 34.28 9.6 33.6C9.6 32.92 9.8304 32.3496 10.2912 31.8888C10.7504 31.4296 11.32 31.2 12 31.2C12.68 31.2 13.2504 31.4296 13.7112 31.8888C14.1704 32.3496 14.4 32.92 14.4 33.6C14.4 34.28 14.1704 34.8496 13.7112 35.3088C13.2504 35.7696 12.68 36 12 36ZM12 19.2C13.32 19.2 14.4504 18.7296 15.3912 17.7888C16.3304 16.8496 16.8 15.72 16.8 14.4C16.8 13.08 16.3304 11.9504 15.3912 11.0112C14.4504 10.0704 13.32 9.6 12 9.6C10.68 9.6 9.5504 10.0704 8.6112 11.0112C7.6704 11.9504 7.2 13.08 7.2 14.4C7.2 15.72 7.6704 16.8496 8.6112 17.7888C9.5504 18.7296 10.68 19.2 12 19.2Z" fill="white"/>
</svg>
