<svg width="48" height="48" viewBox="0 0 48 48" fill="none" xmlns="http://www.w3.org/2000/svg">
<path d="M17.5988 0.0032C16.1064 -0.0324876 14.622 0.230634 13.2328 0.777088C11.8436 1.32354 10.5777 2.14229 9.50957 3.18518C8.44145 4.22806 7.59267 5.47402 7.01316 6.84976C6.43365 8.2255 6.13512 9.70324 6.13512 11.1961C6.13512 12.6889 6.43365 14.1666 7.01316 15.5423C7.59267 16.9181 8.44145 18.164 9.50957 19.2069C10.5777 20.2498 11.8436 21.0686 13.2328 21.615C14.622 22.1615 16.1064 22.4246 17.5988 22.3889C19.0912 22.4246 20.5757 22.1615 21.9649 21.615C23.3541 21.0686 24.62 20.2498 25.6881 19.2069C26.7562 18.164 27.605 16.9181 28.1845 15.5423C28.764 14.1666 29.0625 12.6889 29.0625 11.1961C29.0625 9.70324 28.764 8.2255 28.1845 6.84976C27.605 5.47402 26.7562 4.22806 25.6881 3.18518C24.62 2.14229 23.3541 1.32354 21.9649 0.777088C20.5757 0.230634 19.0912 -0.0324876 17.5988 0.0032ZM11.1993 28.7821C8.22903 28.7821 5.38045 29.962 3.28019 32.0623C1.17992 34.1625 0 37.0111 0 39.9813L0 47.9712H35.1977V39.9813C35.1977 37.0111 34.0177 34.1625 31.9175 32.0623C29.8172 29.962 26.9686 28.7821 23.9984 28.7821H11.1993ZM39.9973 32.0011H38.3974V48H47.9968V40.0005C47.9968 37.8789 47.154 35.8442 45.6538 34.3441C44.1536 32.8439 42.1189 32.0011 39.9973 32.0011Z" fill="white"/>
</svg>
