<svg width="37" height="37" viewBox="0 0 37 37" fill="none" xmlns="http://www.w3.org/2000/svg">
<path fill-rule="evenodd" clip-rule="evenodd" d="M18.3181 36.8392C28.2589 36.7511 36.246 28.6212 36.158 18.6805C36.07 8.73973 27.94 0.752546 17.9993 0.840587C8.05856 0.928629 0.0713715 9.05856 0.159413 18.9993C0.247454 28.94 8.37738 36.9272 18.3181 36.8392ZM11.8427 11.3958C10.7381 11.4055 9.85066 12.3089 9.86044 13.4134L9.97115 25.9129C9.98093 27.0174 10.8843 27.9049 11.9888 27.8951L24.4883 27.7844C25.5928 27.7746 26.4803 26.8713 26.4705 25.7668L26.3598 13.2673C26.35 12.1627 25.4467 11.2753 24.3422 11.2851L11.8427 11.3958Z" fill="white"/>
</svg>
